%
M48
M72
T01C0.0320
T02C0.0400
T03C0.1260
%
T01
X4850Y1600
X4850Y2600
X7350Y2600
X7350Y1600
X9850Y1600
X9850Y2600
X12350Y2600
X12350Y1600
X14850Y1600
X14850Y2600
X17350Y2600
X17350Y1600
X19850Y1600
X19850Y2600
X22350Y2600
X22350Y1600
T02
X24850Y4600
X24850Y5600
X24850Y8600
X24850Y9600
X24850Y10600
X24850Y11600
X24850Y12600
X18850Y15100
X20850Y20100
X20850Y21600
X12350Y26600
X4350Y20600
X4350Y18100
X4350Y10600
X12850Y10600
T03
X2100Y2350
X2100Y25350
X28850Y25350
X28850Y2600
M30
