G75*
G70*
%OFA0B0*%
%FSLAX24Y24*%
%IPPOS*%
%LPD*%
%AMOC8*
5,1,8,0,0,1.08239X$1,0.0*
%
%ADD10C,0.3937*%
%ADD11C,0.3150*%
%ADD12C,0.0520*%
%ADD13C,0.0600*%
%ADD14C,0.0600*%
D10*
X006100Y008100D02*
X006102Y008163D01*
X006108Y008225D01*
X006118Y008287D01*
X006131Y008349D01*
X006149Y008409D01*
X006170Y008468D01*
X006195Y008526D01*
X006224Y008582D01*
X006256Y008636D01*
X006291Y008688D01*
X006329Y008737D01*
X006371Y008785D01*
X006415Y008829D01*
X006463Y008871D01*
X006512Y008909D01*
X006564Y008944D01*
X006618Y008976D01*
X006674Y009005D01*
X006732Y009030D01*
X006791Y009051D01*
X006851Y009069D01*
X006913Y009082D01*
X006975Y009092D01*
X007037Y009098D01*
X007100Y009100D01*
X007163Y009098D01*
X007225Y009092D01*
X007287Y009082D01*
X007349Y009069D01*
X007409Y009051D01*
X007468Y009030D01*
X007526Y009005D01*
X007582Y008976D01*
X007636Y008944D01*
X007688Y008909D01*
X007737Y008871D01*
X007785Y008829D01*
X007829Y008785D01*
X007871Y008737D01*
X007909Y008688D01*
X007944Y008636D01*
X007976Y008582D01*
X008005Y008526D01*
X008030Y008468D01*
X008051Y008409D01*
X008069Y008349D01*
X008082Y008287D01*
X008092Y008225D01*
X008098Y008163D01*
X008100Y008100D01*
X008098Y008037D01*
X008092Y007975D01*
X008082Y007913D01*
X008069Y007851D01*
X008051Y007791D01*
X008030Y007732D01*
X008005Y007674D01*
X007976Y007618D01*
X007944Y007564D01*
X007909Y007512D01*
X007871Y007463D01*
X007829Y007415D01*
X007785Y007371D01*
X007737Y007329D01*
X007688Y007291D01*
X007636Y007256D01*
X007582Y007224D01*
X007526Y007195D01*
X007468Y007170D01*
X007409Y007149D01*
X007349Y007131D01*
X007287Y007118D01*
X007225Y007108D01*
X007163Y007102D01*
X007100Y007100D01*
X007037Y007102D01*
X006975Y007108D01*
X006913Y007118D01*
X006851Y007131D01*
X006791Y007149D01*
X006732Y007170D01*
X006674Y007195D01*
X006618Y007224D01*
X006564Y007256D01*
X006512Y007291D01*
X006463Y007329D01*
X006415Y007371D01*
X006371Y007415D01*
X006329Y007463D01*
X006291Y007512D01*
X006256Y007564D01*
X006224Y007618D01*
X006195Y007674D01*
X006170Y007732D01*
X006149Y007791D01*
X006131Y007851D01*
X006118Y007913D01*
X006108Y007975D01*
X006102Y008037D01*
X006100Y008100D01*
X006100Y015100D02*
X006102Y015163D01*
X006108Y015225D01*
X006118Y015287D01*
X006131Y015349D01*
X006149Y015409D01*
X006170Y015468D01*
X006195Y015526D01*
X006224Y015582D01*
X006256Y015636D01*
X006291Y015688D01*
X006329Y015737D01*
X006371Y015785D01*
X006415Y015829D01*
X006463Y015871D01*
X006512Y015909D01*
X006564Y015944D01*
X006618Y015976D01*
X006674Y016005D01*
X006732Y016030D01*
X006791Y016051D01*
X006851Y016069D01*
X006913Y016082D01*
X006975Y016092D01*
X007037Y016098D01*
X007100Y016100D01*
X007163Y016098D01*
X007225Y016092D01*
X007287Y016082D01*
X007349Y016069D01*
X007409Y016051D01*
X007468Y016030D01*
X007526Y016005D01*
X007582Y015976D01*
X007636Y015944D01*
X007688Y015909D01*
X007737Y015871D01*
X007785Y015829D01*
X007829Y015785D01*
X007871Y015737D01*
X007909Y015688D01*
X007944Y015636D01*
X007976Y015582D01*
X008005Y015526D01*
X008030Y015468D01*
X008051Y015409D01*
X008069Y015349D01*
X008082Y015287D01*
X008092Y015225D01*
X008098Y015163D01*
X008100Y015100D01*
X008098Y015037D01*
X008092Y014975D01*
X008082Y014913D01*
X008069Y014851D01*
X008051Y014791D01*
X008030Y014732D01*
X008005Y014674D01*
X007976Y014618D01*
X007944Y014564D01*
X007909Y014512D01*
X007871Y014463D01*
X007829Y014415D01*
X007785Y014371D01*
X007737Y014329D01*
X007688Y014291D01*
X007636Y014256D01*
X007582Y014224D01*
X007526Y014195D01*
X007468Y014170D01*
X007409Y014149D01*
X007349Y014131D01*
X007287Y014118D01*
X007225Y014108D01*
X007163Y014102D01*
X007100Y014100D01*
X007037Y014102D01*
X006975Y014108D01*
X006913Y014118D01*
X006851Y014131D01*
X006791Y014149D01*
X006732Y014170D01*
X006674Y014195D01*
X006618Y014224D01*
X006564Y014256D01*
X006512Y014291D01*
X006463Y014329D01*
X006415Y014371D01*
X006371Y014415D01*
X006329Y014463D01*
X006291Y014512D01*
X006256Y014564D01*
X006224Y014618D01*
X006195Y014674D01*
X006170Y014732D01*
X006149Y014791D01*
X006131Y014851D01*
X006118Y014913D01*
X006108Y014975D01*
X006102Y015037D01*
X006100Y015100D01*
X006100Y022100D02*
X006102Y022163D01*
X006108Y022225D01*
X006118Y022287D01*
X006131Y022349D01*
X006149Y022409D01*
X006170Y022468D01*
X006195Y022526D01*
X006224Y022582D01*
X006256Y022636D01*
X006291Y022688D01*
X006329Y022737D01*
X006371Y022785D01*
X006415Y022829D01*
X006463Y022871D01*
X006512Y022909D01*
X006564Y022944D01*
X006618Y022976D01*
X006674Y023005D01*
X006732Y023030D01*
X006791Y023051D01*
X006851Y023069D01*
X006913Y023082D01*
X006975Y023092D01*
X007037Y023098D01*
X007100Y023100D01*
X007163Y023098D01*
X007225Y023092D01*
X007287Y023082D01*
X007349Y023069D01*
X007409Y023051D01*
X007468Y023030D01*
X007526Y023005D01*
X007582Y022976D01*
X007636Y022944D01*
X007688Y022909D01*
X007737Y022871D01*
X007785Y022829D01*
X007829Y022785D01*
X007871Y022737D01*
X007909Y022688D01*
X007944Y022636D01*
X007976Y022582D01*
X008005Y022526D01*
X008030Y022468D01*
X008051Y022409D01*
X008069Y022349D01*
X008082Y022287D01*
X008092Y022225D01*
X008098Y022163D01*
X008100Y022100D01*
X008098Y022037D01*
X008092Y021975D01*
X008082Y021913D01*
X008069Y021851D01*
X008051Y021791D01*
X008030Y021732D01*
X008005Y021674D01*
X007976Y021618D01*
X007944Y021564D01*
X007909Y021512D01*
X007871Y021463D01*
X007829Y021415D01*
X007785Y021371D01*
X007737Y021329D01*
X007688Y021291D01*
X007636Y021256D01*
X007582Y021224D01*
X007526Y021195D01*
X007468Y021170D01*
X007409Y021149D01*
X007349Y021131D01*
X007287Y021118D01*
X007225Y021108D01*
X007163Y021102D01*
X007100Y021100D01*
X007037Y021102D01*
X006975Y021108D01*
X006913Y021118D01*
X006851Y021131D01*
X006791Y021149D01*
X006732Y021170D01*
X006674Y021195D01*
X006618Y021224D01*
X006564Y021256D01*
X006512Y021291D01*
X006463Y021329D01*
X006415Y021371D01*
X006371Y021415D01*
X006329Y021463D01*
X006291Y021512D01*
X006256Y021564D01*
X006224Y021618D01*
X006195Y021674D01*
X006170Y021732D01*
X006149Y021791D01*
X006131Y021851D01*
X006118Y021913D01*
X006108Y021975D01*
X006102Y022037D01*
X006100Y022100D01*
X013100Y022100D02*
X013102Y022163D01*
X013108Y022225D01*
X013118Y022287D01*
X013131Y022349D01*
X013149Y022409D01*
X013170Y022468D01*
X013195Y022526D01*
X013224Y022582D01*
X013256Y022636D01*
X013291Y022688D01*
X013329Y022737D01*
X013371Y022785D01*
X013415Y022829D01*
X013463Y022871D01*
X013512Y022909D01*
X013564Y022944D01*
X013618Y022976D01*
X013674Y023005D01*
X013732Y023030D01*
X013791Y023051D01*
X013851Y023069D01*
X013913Y023082D01*
X013975Y023092D01*
X014037Y023098D01*
X014100Y023100D01*
X014163Y023098D01*
X014225Y023092D01*
X014287Y023082D01*
X014349Y023069D01*
X014409Y023051D01*
X014468Y023030D01*
X014526Y023005D01*
X014582Y022976D01*
X014636Y022944D01*
X014688Y022909D01*
X014737Y022871D01*
X014785Y022829D01*
X014829Y022785D01*
X014871Y022737D01*
X014909Y022688D01*
X014944Y022636D01*
X014976Y022582D01*
X015005Y022526D01*
X015030Y022468D01*
X015051Y022409D01*
X015069Y022349D01*
X015082Y022287D01*
X015092Y022225D01*
X015098Y022163D01*
X015100Y022100D01*
X015098Y022037D01*
X015092Y021975D01*
X015082Y021913D01*
X015069Y021851D01*
X015051Y021791D01*
X015030Y021732D01*
X015005Y021674D01*
X014976Y021618D01*
X014944Y021564D01*
X014909Y021512D01*
X014871Y021463D01*
X014829Y021415D01*
X014785Y021371D01*
X014737Y021329D01*
X014688Y021291D01*
X014636Y021256D01*
X014582Y021224D01*
X014526Y021195D01*
X014468Y021170D01*
X014409Y021149D01*
X014349Y021131D01*
X014287Y021118D01*
X014225Y021108D01*
X014163Y021102D01*
X014100Y021100D01*
X014037Y021102D01*
X013975Y021108D01*
X013913Y021118D01*
X013851Y021131D01*
X013791Y021149D01*
X013732Y021170D01*
X013674Y021195D01*
X013618Y021224D01*
X013564Y021256D01*
X013512Y021291D01*
X013463Y021329D01*
X013415Y021371D01*
X013371Y021415D01*
X013329Y021463D01*
X013291Y021512D01*
X013256Y021564D01*
X013224Y021618D01*
X013195Y021674D01*
X013170Y021732D01*
X013149Y021791D01*
X013131Y021851D01*
X013118Y021913D01*
X013108Y021975D01*
X013102Y022037D01*
X013100Y022100D01*
X013100Y015100D02*
X013102Y015163D01*
X013108Y015225D01*
X013118Y015287D01*
X013131Y015349D01*
X013149Y015409D01*
X013170Y015468D01*
X013195Y015526D01*
X013224Y015582D01*
X013256Y015636D01*
X013291Y015688D01*
X013329Y015737D01*
X013371Y015785D01*
X013415Y015829D01*
X013463Y015871D01*
X013512Y015909D01*
X013564Y015944D01*
X013618Y015976D01*
X013674Y016005D01*
X013732Y016030D01*
X013791Y016051D01*
X013851Y016069D01*
X013913Y016082D01*
X013975Y016092D01*
X014037Y016098D01*
X014100Y016100D01*
X014163Y016098D01*
X014225Y016092D01*
X014287Y016082D01*
X014349Y016069D01*
X014409Y016051D01*
X014468Y016030D01*
X014526Y016005D01*
X014582Y015976D01*
X014636Y015944D01*
X014688Y015909D01*
X014737Y015871D01*
X014785Y015829D01*
X014829Y015785D01*
X014871Y015737D01*
X014909Y015688D01*
X014944Y015636D01*
X014976Y015582D01*
X015005Y015526D01*
X015030Y015468D01*
X015051Y015409D01*
X015069Y015349D01*
X015082Y015287D01*
X015092Y015225D01*
X015098Y015163D01*
X015100Y015100D01*
X015098Y015037D01*
X015092Y014975D01*
X015082Y014913D01*
X015069Y014851D01*
X015051Y014791D01*
X015030Y014732D01*
X015005Y014674D01*
X014976Y014618D01*
X014944Y014564D01*
X014909Y014512D01*
X014871Y014463D01*
X014829Y014415D01*
X014785Y014371D01*
X014737Y014329D01*
X014688Y014291D01*
X014636Y014256D01*
X014582Y014224D01*
X014526Y014195D01*
X014468Y014170D01*
X014409Y014149D01*
X014349Y014131D01*
X014287Y014118D01*
X014225Y014108D01*
X014163Y014102D01*
X014100Y014100D01*
X014037Y014102D01*
X013975Y014108D01*
X013913Y014118D01*
X013851Y014131D01*
X013791Y014149D01*
X013732Y014170D01*
X013674Y014195D01*
X013618Y014224D01*
X013564Y014256D01*
X013512Y014291D01*
X013463Y014329D01*
X013415Y014371D01*
X013371Y014415D01*
X013329Y014463D01*
X013291Y014512D01*
X013256Y014564D01*
X013224Y014618D01*
X013195Y014674D01*
X013170Y014732D01*
X013149Y014791D01*
X013131Y014851D01*
X013118Y014913D01*
X013108Y014975D01*
X013102Y015037D01*
X013100Y015100D01*
X013100Y008100D02*
X013102Y008163D01*
X013108Y008225D01*
X013118Y008287D01*
X013131Y008349D01*
X013149Y008409D01*
X013170Y008468D01*
X013195Y008526D01*
X013224Y008582D01*
X013256Y008636D01*
X013291Y008688D01*
X013329Y008737D01*
X013371Y008785D01*
X013415Y008829D01*
X013463Y008871D01*
X013512Y008909D01*
X013564Y008944D01*
X013618Y008976D01*
X013674Y009005D01*
X013732Y009030D01*
X013791Y009051D01*
X013851Y009069D01*
X013913Y009082D01*
X013975Y009092D01*
X014037Y009098D01*
X014100Y009100D01*
X014163Y009098D01*
X014225Y009092D01*
X014287Y009082D01*
X014349Y009069D01*
X014409Y009051D01*
X014468Y009030D01*
X014526Y009005D01*
X014582Y008976D01*
X014636Y008944D01*
X014688Y008909D01*
X014737Y008871D01*
X014785Y008829D01*
X014829Y008785D01*
X014871Y008737D01*
X014909Y008688D01*
X014944Y008636D01*
X014976Y008582D01*
X015005Y008526D01*
X015030Y008468D01*
X015051Y008409D01*
X015069Y008349D01*
X015082Y008287D01*
X015092Y008225D01*
X015098Y008163D01*
X015100Y008100D01*
X015098Y008037D01*
X015092Y007975D01*
X015082Y007913D01*
X015069Y007851D01*
X015051Y007791D01*
X015030Y007732D01*
X015005Y007674D01*
X014976Y007618D01*
X014944Y007564D01*
X014909Y007512D01*
X014871Y007463D01*
X014829Y007415D01*
X014785Y007371D01*
X014737Y007329D01*
X014688Y007291D01*
X014636Y007256D01*
X014582Y007224D01*
X014526Y007195D01*
X014468Y007170D01*
X014409Y007149D01*
X014349Y007131D01*
X014287Y007118D01*
X014225Y007108D01*
X014163Y007102D01*
X014100Y007100D01*
X014037Y007102D01*
X013975Y007108D01*
X013913Y007118D01*
X013851Y007131D01*
X013791Y007149D01*
X013732Y007170D01*
X013674Y007195D01*
X013618Y007224D01*
X013564Y007256D01*
X013512Y007291D01*
X013463Y007329D01*
X013415Y007371D01*
X013371Y007415D01*
X013329Y007463D01*
X013291Y007512D01*
X013256Y007564D01*
X013224Y007618D01*
X013195Y007674D01*
X013170Y007732D01*
X013149Y007791D01*
X013131Y007851D01*
X013118Y007913D01*
X013108Y007975D01*
X013102Y008037D01*
X013100Y008100D01*
D11*
X022100Y018600D02*
X022102Y018644D01*
X022108Y018688D01*
X022118Y018731D01*
X022131Y018773D01*
X022148Y018814D01*
X022169Y018853D01*
X022193Y018890D01*
X022220Y018925D01*
X022250Y018957D01*
X022283Y018987D01*
X022319Y019013D01*
X022356Y019037D01*
X022396Y019056D01*
X022437Y019073D01*
X022480Y019085D01*
X022523Y019094D01*
X022567Y019099D01*
X022611Y019100D01*
X022655Y019097D01*
X022699Y019090D01*
X022742Y019079D01*
X022784Y019065D01*
X022824Y019047D01*
X022863Y019025D01*
X022899Y019001D01*
X022933Y018973D01*
X022965Y018942D01*
X022994Y018908D01*
X023020Y018872D01*
X023042Y018834D01*
X023061Y018794D01*
X023076Y018752D01*
X023088Y018710D01*
X023096Y018666D01*
X023100Y018622D01*
X023100Y018578D01*
X023096Y018534D01*
X023088Y018490D01*
X023076Y018448D01*
X023061Y018406D01*
X023042Y018366D01*
X023020Y018328D01*
X022994Y018292D01*
X022965Y018258D01*
X022933Y018227D01*
X022899Y018199D01*
X022863Y018175D01*
X022824Y018153D01*
X022784Y018135D01*
X022742Y018121D01*
X022699Y018110D01*
X022655Y018103D01*
X022611Y018100D01*
X022567Y018101D01*
X022523Y018106D01*
X022480Y018115D01*
X022437Y018127D01*
X022396Y018144D01*
X022356Y018163D01*
X022319Y018187D01*
X022283Y018213D01*
X022250Y018243D01*
X022220Y018275D01*
X022193Y018310D01*
X022169Y018347D01*
X022148Y018386D01*
X022131Y018427D01*
X022118Y018469D01*
X022108Y018512D01*
X022102Y018556D01*
X022100Y018600D01*
X022100Y023100D02*
X022102Y023144D01*
X022108Y023188D01*
X022118Y023231D01*
X022131Y023273D01*
X022148Y023314D01*
X022169Y023353D01*
X022193Y023390D01*
X022220Y023425D01*
X022250Y023457D01*
X022283Y023487D01*
X022319Y023513D01*
X022356Y023537D01*
X022396Y023556D01*
X022437Y023573D01*
X022480Y023585D01*
X022523Y023594D01*
X022567Y023599D01*
X022611Y023600D01*
X022655Y023597D01*
X022699Y023590D01*
X022742Y023579D01*
X022784Y023565D01*
X022824Y023547D01*
X022863Y023525D01*
X022899Y023501D01*
X022933Y023473D01*
X022965Y023442D01*
X022994Y023408D01*
X023020Y023372D01*
X023042Y023334D01*
X023061Y023294D01*
X023076Y023252D01*
X023088Y023210D01*
X023096Y023166D01*
X023100Y023122D01*
X023100Y023078D01*
X023096Y023034D01*
X023088Y022990D01*
X023076Y022948D01*
X023061Y022906D01*
X023042Y022866D01*
X023020Y022828D01*
X022994Y022792D01*
X022965Y022758D01*
X022933Y022727D01*
X022899Y022699D01*
X022863Y022675D01*
X022824Y022653D01*
X022784Y022635D01*
X022742Y022621D01*
X022699Y022610D01*
X022655Y022603D01*
X022611Y022600D01*
X022567Y022601D01*
X022523Y022606D01*
X022480Y022615D01*
X022437Y022627D01*
X022396Y022644D01*
X022356Y022663D01*
X022319Y022687D01*
X022283Y022713D01*
X022250Y022743D01*
X022220Y022775D01*
X022193Y022810D01*
X022169Y022847D01*
X022148Y022886D01*
X022131Y022927D01*
X022118Y022969D01*
X022108Y023012D01*
X022102Y023056D01*
X022100Y023100D01*
D12*
X005350Y001600D03*
X005350Y002600D03*
X007850Y002600D03*
X007850Y001600D03*
X010350Y001600D03*
X010350Y002600D03*
X012850Y002600D03*
X012850Y001600D03*
X015350Y001600D03*
X015350Y002600D03*
X017850Y002600D03*
X017850Y001600D03*
X020350Y001600D03*
X020350Y002600D03*
X022850Y002600D03*
X022850Y001600D03*
D13*
X013100Y010850D03*
X012100Y012850D03*
X005100Y010350D03*
X005100Y017600D03*
X005600Y019600D03*
X012350Y019600D03*
X020600Y023850D03*
X024100Y020100D03*
D14*
X024050Y015600D02*
X024650Y015600D01*
X024650Y014600D02*
X024050Y014600D01*
X024050Y013600D02*
X024650Y013600D01*
X024650Y012600D02*
X024050Y012600D01*
X024050Y011600D02*
X024650Y011600D01*
X024650Y010600D02*
X024050Y010600D01*
X024050Y009100D02*
X024650Y009100D01*
X024650Y008100D02*
X024050Y008100D01*
X024050Y007100D02*
X024650Y007100D01*
X024650Y006100D02*
X024050Y006100D01*
X024050Y005100D02*
X024650Y005100D01*
X024650Y004100D02*
X024050Y004100D01*
X024050Y003100D02*
X024650Y003100D01*
M02*
