%
M48
M72
T01C0.0320
T02C0.0400
T03C0.1260
%
T01
X5350Y1600
X5350Y2600
X7850Y2600
X7850Y1600
X10350Y1600
X10350Y2600
X12850Y2600
X12850Y1600
X15350Y1600
X15350Y2600
X17850Y2600
X17850Y1600
X20350Y1600
X20350Y2600
X22850Y2600
X22850Y1600
T02
X24350Y3100
X24350Y4100
X24350Y5100
X24350Y6100
X24350Y7100
X24350Y8100
X24350Y9100
X24350Y10600
X24350Y11600
X24350Y12600
X24350Y13600
X24350Y14600
X24350Y15600
X24100Y20100
X20600Y23850
X12350Y19600
X5600Y19600
X5100Y17600
X12100Y12850
X13100Y10850
X5100Y10350
T03
X2100Y2350
X2100Y23350
X27850Y23350
X27850Y2600
M30
